<svg xmlns="http://www.w3.org/2000/svg" xmlns:xlink="http://www.w3.org/1999/xlink" width="52.332" height="20.1" viewBox="0 0 52.332 20.1">
  <defs>
    <filter id="탐책" x="0" y="0" width="31.1" height="20.1" filterUnits="userSpaceOnUse">
      <feOffset dx="0.5" dy="0.5" input="SourceAlpha"/>
      <feGaussianBlur stdDeviation="0.25" result="blur"/>
      <feFlood flood-opacity="0.161"/>
      <feComposite operator="in" in2="blur"/>
      <feComposite in="SourceGraphic"/>
    </filter>
    <filter id="패스_150" x="30.29" y="1.83" width="17.54" height="15.261" filterUnits="userSpaceOnUse">
      <feOffset dx="0.5" dy="0.5" input="SourceAlpha"/>
      <feGaussianBlur stdDeviation="0.25" result="blur-2"/>
      <feFlood flood-opacity="0.161"/>
      <feComposite operator="in" in2="blur-2"/>
      <feComposite in="SourceGraphic"/>
    </filter>
    <filter id="타원_102" x="40.3" y="4.3" width="10.5" height="10.5" filterUnits="userSpaceOnUse">
      <feOffset dx="0.5" dy="0.5" input="SourceAlpha"/>
      <feGaussianBlur stdDeviation="0.25" result="blur-3"/>
      <feFlood flood-opacity="0.161"/>
      <feComposite operator="in" in2="blur-3"/>
      <feComposite in="SourceGraphic"/>
    </filter>
    <filter id="패스_151" x="46.593" y="10.754" width="5.739" height="6.013" filterUnits="userSpaceOnUse">
      <feOffset dx="0.5" input="SourceAlpha"/>
      <feGaussianBlur stdDeviation="0.25" result="blur-4"/>
      <feFlood flood-opacity="0.161"/>
      <feComposite operator="in" in2="blur-4"/>
      <feComposite in="SourceGraphic"/>
    </filter>
  </defs>
  <g id="로고" transform="translate(3593.55 -3200.45)">
    <g transform="matrix(1, 0, 0, 1, -3593.55, 3200.45)" filter="url(#탐책)">
      <text id="탐책-2" data-name="탐책" transform="translate(0.55 13.55)" stroke="#000" stroke-width="0.3" font-size="16" font-family="wamakeprice-regular, Wemakeprice"><tspan x="0" y="0">탐책</tspan></text>
    </g>
    <g transform="matrix(1, 0, 0, 1, -3593.55, 3200.45)" filter="url(#패스_150)">
      <path id="패스_150-2" data-name="패스 150" d="M90.6-63.725s-.3,11.471,0,11.643,2.006-1.184,3.8-1.4a4.674,4.674,0,0,1,3.364,1.4,5.338,5.338,0,0,1,3.65-1.4c1.911.216,3.676,1.63,4,1.4s0-11.643,0-11.643a7.437,7.437,0,0,0-4-.862,9.377,9.377,0,0,0-3.65,1.581,5.892,5.892,0,0,0-3.022-1.581A8.566,8.566,0,0,0,90.6-63.725Z" transform="translate(-59.45 67.22)" fill="#fff" stroke="#212171" stroke-width="1"/>
    </g>
    <g transform="matrix(1, 0, 0, 1, -3593.55, 3200.45)" filter="url(#타원_102)">
      <g id="타원_102-2" data-name="타원 102" transform="translate(40.55 4.55)" fill="none" stroke="#131313" stroke-width="1.2">
        <circle cx="4.5" cy="4.5" r="4.5" stroke="none"/>
        <circle cx="4.5" cy="4.5" r="3.9" fill="none"/>
      </g>
    </g>
    <circle id="타원_101" data-name="타원 101" cx="3.5" cy="3.5" r="3.5" transform="translate(-3552 3206)" fill="#fff" opacity="0.6"/>
    <g transform="matrix(1, 0, 0, 1, -3593.55, 3200.45)" filter="url(#패스_151)">
      <path id="패스_151-2" data-name="패스 151" d="M106.211-48.128l2.4,2.678" transform="translate(-58.45 60.55)" fill="none" stroke="#131313" stroke-linecap="round" stroke-width="1.3"/>
    </g>
  </g>
</svg>
